<svg width="247" height="37" xmlns="http://www.w3.org/2000/svg" xmlns:xlink="http://www.w3.org/1999/xlink" overflow="hidden"><defs><clipPath id="clip0"><rect x="102" y="176" width="247" height="37"/></clipPath><clipPath id="clip1"><rect x="316" y="185" width="15" height="17"/></clipPath><clipPath id="clip2"><rect x="316" y="185" width="15" height="17"/></clipPath><clipPath id="clip3"><rect x="316" y="185" width="15" height="17"/></clipPath></defs><g clip-path="url(#clip0)" transform="translate(-102 -176)"><rect x="102" y="177" width="246" height="33" fill="#555555"/><text fill="#BFBFBF" font-family="Cascadia Mono,Cascadia Mono_MSFontService,sans-serif" font-weight="400" font-size="16" transform="translate(121.341 199)">FOLLOW<tspan fill="#FFFFFF" font-size="16" x="65.3333" y="0">@PRINCECAARLO</tspan></text><rect x="102" y="177" width="4" height="33" fill="#1DA1F2"/><g clip-path="url(#clip1)"><g clip-path="url(#clip2)"><g clip-path="url(#clip3)"><path d="M13.4581 4.4448C13.4676 4.57805 13.4676 4.71132 13.4676 4.84456 13.4676 8.90862 10.3744 13.5914 4.72081 13.5914 2.97905 13.5914 1.36104 13.0869 0 12.2113 0.247471 12.2399 0.485391 12.2494 0.742383 12.2494 2.17954 12.2494 3.50253 11.764 4.559 10.9359 3.20748 10.9074 2.07486 10.0222 1.68463 8.80395 1.875 8.83248 2.06534 8.85152 2.26523 8.85152 2.54124 8.85152 2.81728 8.81344 3.07424 8.74685 1.66562 8.46129 0.609111 7.22399 0.609111 5.72971L0.609111 5.69165C1.01836 5.92008 1.49429 6.06284 1.99869 6.08186 1.17064 5.52981 0.628154 4.58757 0.628154 3.52157 0.628154 2.95052 0.78041 2.42704 1.04692 1.97019 2.56025 3.83566 4.83501 5.05392 7.38574 5.18719 7.33816 4.95876 7.3096 4.72084 7.3096 4.48289 7.3096 2.78871 8.68017 1.40865 10.3838 1.40865 11.269 1.40865 12.0685 1.77984 12.63 2.37946 13.3248 2.24622 13.991 1.98923 14.5812 1.63708 14.3527 2.35093 13.8673 2.95055 13.2296 3.33123 13.8483 3.26464 14.4479 3.09328 14.9999 2.85536 14.5812 3.46447 14.0577 4.00696 13.4581 4.4448Z" fill="#1DA1F2" transform="matrix(1 0 0 1.13333 316 185)"/></g></g></g></g></svg>