<svg width="185" height="37" xmlns="http://www.w3.org/2000/svg" xmlns:xlink="http://www.w3.org/1999/xlink" overflow="hidden"><defs><clipPath id="clip0"><rect x="102" y="176" width="185" height="37"/></clipPath><clipPath id="clip1"><rect x="253" y="185" width="14" height="17"/></clipPath><clipPath id="clip2"><rect x="253" y="185" width="14" height="17"/></clipPath><clipPath id="clip3"><rect x="253" y="185" width="14" height="17"/></clipPath></defs><g clip-path="url(#clip0)" transform="translate(-102 -176)"><rect x="102" y="177" width="184" height="33" fill="#555555"/><text fill="#D9D9D9" font-family="Cascadia Mono,Cascadia Mono_MSFontService,sans-serif" font-weight="400" font-size="16" transform="translate(121.341 199)">@princecaarlo</text><rect x="102" y="177" width="4" height="33" fill="#1DA1F2"/><g clip-path="url(#clip1)"><g clip-path="url(#clip2)"><g clip-path="url(#clip3)"><path d="M12.5609 4.14848C12.5698 4.27284 12.5698 4.39723 12.5698 4.52159 12.5698 8.31471 9.68275 12.6853 4.40609 12.6853 2.78045 12.6853 1.27031 12.2145 0 11.3972 0.230973 11.4239 0.453031 11.4327 0.692891 11.4327 2.03424 11.4327 3.26903 10.9797 4.25507 10.2069 2.99365 10.1802 1.93654 9.35408 1.57232 8.21702 1.75 8.24365 1.92765 8.26142 2.11422 8.26142 2.37182 8.26142 2.62946 8.22587 2.86929 8.16372 1.55457 7.8972 0.568504 6.74239 0.568504 5.34773L0.568504 5.31221C0.950469 5.52541 1.39467 5.65865 1.86545 5.6764 1.0926 5.16116 0.586277 4.28173 0.586277 3.2868 0.586277 2.75382 0.728383 2.26524 0.977129 1.83884 2.38957 3.57995 4.51268 4.71699 6.89336 4.84137 6.84895 4.62818 6.82229 4.40612 6.82229 4.18403 6.82229 2.6028 8.10149 1.31474 9.69158 1.31474 10.5177 1.31474 11.2639 1.66119 11.788 2.22083 12.4365 2.09647 13.0583 1.85661 13.6091 1.52794 13.3959 2.1942 12.9428 2.75384 12.3477 3.10915 12.9251 3.047 13.4847 2.88706 13.9999 2.665 13.6091 3.23351 13.1205 3.73983 12.5609 4.14848Z" fill="#1DA1F2" transform="matrix(1 0 0 1.21429 253 185)"/></g></g></g></g></svg>